  http://leetleech.org/images/20905925920398549926.jpg

Screens:
  
http://leetleech.org/images/40662729222947367556.jpg
  
http://leetleech.org/images/92747190858828709220.jpg
  
http://leetleech.org/images/53390554145635339650.jpg
  
http://leetleech.org/images/75497123510164563389.jpg

Alternative:
  
http://www.postimg.com/image/43000/photo-42460.jpg  
http://www.postimg.com/image/43000/photo-42461.jpg  
http://www.postimg.com/image/43000/photo-42462.jpg  
http://www.postimg.com/image/43000/photo-42463.jpg

ScreenCaps:
  
http://www.postimg.com/43000/photo-42464.jpg

Your Highness (2011) DVDRip XviD-MAX
Format                           : AVI
Format/Info                      : Audio Video Interleave
Format profile                   : OpenDML
File size                        : 1.17 GiB
Duration                         : 1h 45mn
Overall bit rate                 : 1 592 Kbps
Writing application              : VirtualDubMod 1.5.10.2 (build 2542/release)
Writing library                  : VirtualDubMod build 2542/release
Original source form             : MAX TORRENTZ
Copyright                        : SIGISMUNT

Video
ID                               : 0
Format                           : MPEG-4 Visual
Format profile                   : AdvancedSimple@L5
Format settings, BVOP            : Yes
Format settings, QPel            : No
Format settings, GMC             : No warppoints
Format settings, Matrix          : Default (H.263)
Muxing mode                      : Packed bitstream
Codec ID                         : XVID
Codec ID/Hint                    : XviD
Duration                         : 1h 45mn
Bit rate                         : 1 396 Kbps
Width                            : 624 pixels
Height                           : 256 pixels
Display aspect ratio             : 2.40:1
Frame rate                       : 23.976 fps
Resolution                       : 24 bits
Colorimetry                      : 4:2:0
Scan type                        : Progressive
Bits/(Pixel*Frame)               : 0.365
Stream size                      : 1.03 GiB (88%)
Writing library                  : XviD 57

Audio
ID                               : 1
Format                           : MPEG Audio
Format version                   : Version 1
Format profile                   : Layer 2
Codec ID                         : 50
Codec ID/Hint                    : MP1
Duration                         : 1h 45mn
Bit rate mode                    : Constant
Bit rate                         : 192 Kbps
Channel(s)                       : 2 channels
Sampling rate                    : 48.0 KHz
Resolution                       : 16 bits
Stream size                      : 145 MiB (12%)
Alignment                        : Aligned on interleaves
Interleave, duration             : 559 ms (13.41 video frames)
Interleave, preload duration     : 216 ms

Source: DVD (perfect a/v/sync quality,sample is included)
This torrent is not seedbox supported,please seed it to the MAX 
  
http://www.imdb.com/title/tt1240982/

Your Highness (2011) DVDRip XviD-MAX Torrent Free Download
 